<?xml version="1.0" encoding="UTF-8"?>
<svg id="Ebene_1" data-name="Ebene 1" xmlns="http://www.w3.org/2000/svg" xmlns:xlink="http://www.w3.org/1999/xlink" viewBox="0 0 500 500">
  <defs>
    <style>
      .cls-1 {
        letter-spacing: -.04em;
      }

      .cls-1, .cls-2, .cls-3, .cls-4, .cls-5, .cls-6, .cls-7, .cls-8 {
        font-family: Rubik-Regular, Rubik;
        font-variation-settings: 'wght' 400;
      }

      .cls-9, .cls-10, .cls-11 {
        fill: #140d69;
      }

      .cls-10 {
        font-size: 9.35px;
      }

      .cls-2 {
        letter-spacing: -.01em;
      }

      .cls-11 {
        font-size: 22.09px;
      }

      .cls-11, .cls-12 {
        font-family: Rubik-Bold, Rubik;
        font-variation-settings: 'wght' 700;
        font-weight: 700;
      }

      .cls-13 {
        fill: #fff;
      }

      .cls-14 {
        fill: none;
        stroke: #140d69;
        stroke-miterlimit: 10;
        stroke-width: 4.88px;
      }

      .cls-15 {
        letter-spacing: 0em;
      }

      .cls-3 {
        letter-spacing: -.03em;
      }

      .cls-16 {
        letter-spacing: 0em;
      }

      .cls-17 {
        letter-spacing: 0em;
      }

      .cls-4 {
        letter-spacing: 0em;
      }

      .cls-18 {
        letter-spacing: -.02em;
      }

      .cls-6 {
        letter-spacing: -.02em;
      }

      .cls-7 {
        letter-spacing: -.01em;
      }

      .cls-8 {
        letter-spacing: -.03em;
      }

      .cls-19 {
        fill: url(#Unbenannter_Verlauf_2);
      }
    </style>
    <linearGradient id="Unbenannter_Verlauf_2" data-name="Unbenannter Verlauf 2" x1="230.08" y1="189.98" x2="294.01" y2="189.98" gradientUnits="userSpaceOnUse">
      <stop offset="0" stop-color="#f98d2b"/>
      <stop offset="1" stop-color="#faf041"/>
    </linearGradient>
  </defs>
  <g>
    <path class="cls-19" d="M291.78,162.96c-2.68-2.32-6.74-2.02-9.06.66l-33.44,38.7-7.91-9.15c-2.32-2.69-6.38-2.98-9.06-.66-2.68,2.32-2.98,6.38-.66,9.06l12.77,14.78c1.22,1.41,2.99,2.22,4.86,2.22s3.64-.81,4.86-2.22l38.31-44.33c2.32-2.68,2.02-6.74-.66-9.06Z"/>
    <path class="cls-9" d="M280.84,201.87c-1.77,0-3.21,1.44-3.21,3.21,0,7.98-3.11,15.48-8.75,21.12-5.64,5.64-13.14,8.75-21.12,8.75-16.47,0-29.87-13.4-29.87-29.87,0-7.98,3.11-15.48,8.75-21.12,5.64-5.64,13.14-8.75,21.12-8.75,1.66,0,3.32.14,4.93.4,1.75.29,3.4-.89,3.7-2.64.29-1.75-.89-3.4-2.64-3.7-1.97-.33-3.98-.49-5.99-.49-9.7,0-18.81,3.78-25.66,10.63-6.86,6.85-10.63,15.97-10.63,25.67,0,20.02,16.28,36.3,36.3,36.3,9.7,0,18.81-3.78,25.66-10.63,6.86-6.85,10.64-15.97,10.64-25.67,0-1.77-1.44-3.21-3.21-3.21Z"/>
  </g>
  <path class="cls-9" d="M240.5,238.63h8.28c5.91,0,10.71,4.8,10.71,10.71v196.55c0,5.91-4.8,10.71-10.71,10.71h-8.28v-217.97h0Z" transform="translate(597.62 97.62) rotate(90)"/>
  <g>
    <path class="cls-13" d="M212.45,353.95c-.09,0-.16-.03-.23-.09-.06-.06-.09-.13-.09-.22v-.87c0-.06.02-.14.05-.26s.12-.23.26-.34l1.28-1.25c.66-.5,1.19-.92,1.62-1.27s.73-.66.94-.93c.2-.27.31-.52.31-.76,0-.28-.07-.51-.22-.69s-.39-.28-.74-.28c-.24,0-.43.05-.6.15-.16.1-.28.24-.36.4-.08.16-.14.33-.17.5-.03.11-.09.18-.17.22-.08.04-.16.06-.25.06h-1.54c-.07,0-.14-.02-.19-.07s-.07-.11-.07-.18c0-.39.09-.76.25-1.1.16-.34.39-.65.68-.92.29-.27.64-.47,1.04-.62.41-.15.86-.22,1.37-.22.7,0,1.29.11,1.78.33.49.22.86.53,1.11.93.25.4.38.86.38,1.39,0,.4-.09.78-.26,1.12s-.43.68-.75,1c-.32.32-.71.64-1.15.98l-1.13,1.14h3.16c.09,0,.17.03.23.09.06.06.09.13.09.22v1.24c0,.09-.03.16-.09.22s-.14.09-.23.09h-6.3Z"/>
    <path class="cls-13" d="M223.77,354.07c-.59,0-1.1-.08-1.54-.25-.43-.17-.79-.4-1.08-.69-.28-.29-.5-.64-.64-1.03-.15-.39-.23-.81-.26-1.27,0-.22-.01-.47-.02-.75,0-.28,0-.57,0-.86,0-.29.01-.55.02-.78.02-.45.11-.87.26-1.26s.37-.73.66-1.02c.29-.29.65-.52,1.08-.68.43-.16.93-.25,1.5-.25s1.08.08,1.51.25.78.39,1.07.68c.29.29.51.63.67,1.02.15.39.24.81.26,1.26.02.23.03.49.03.78,0,.29,0,.58,0,.86,0,.28-.01.53-.03.75-.02.45-.1.87-.25,1.27s-.37.74-.65,1.03c-.28.29-.64.53-1.07.69-.43.17-.94.25-1.54.25ZM223.77,352.29c.42,0,.73-.14.93-.41.19-.27.29-.65.3-1.11.02-.24.03-.49.03-.75s0-.52,0-.79-.01-.5-.03-.72c0-.45-.11-.82-.3-1.09-.19-.28-.5-.42-.93-.43-.43,0-.73.15-.92.43s-.29.64-.31,1.09c0,.22-.01.46-.02.72s0,.52,0,.79.01.51.02.75c.02.47.12.84.32,1.11s.5.41.91.41Z"/>
    <path class="cls-13" d="M228.79,353.95c-.09,0-.16-.03-.23-.09-.06-.06-.09-.13-.09-.22v-.87c0-.06.02-.14.05-.26s.12-.23.26-.34l1.28-1.25c.66-.5,1.19-.92,1.62-1.27s.73-.66.94-.93c.2-.27.31-.52.31-.76,0-.28-.07-.51-.22-.69s-.39-.28-.74-.28c-.24,0-.43.05-.6.15-.16.1-.28.24-.36.4-.08.16-.14.33-.17.5-.03.11-.09.18-.17.22-.08.04-.16.06-.25.06h-1.54c-.07,0-.14-.02-.19-.07s-.07-.11-.07-.18c0-.39.09-.76.25-1.1.16-.34.39-.65.68-.92.29-.27.64-.47,1.04-.62.41-.15.86-.22,1.37-.22.7,0,1.29.11,1.78.33.49.22.86.53,1.11.93.25.4.38.86.38,1.39,0,.4-.09.78-.26,1.12s-.43.68-.75,1c-.32.32-.71.64-1.15.98l-1.13,1.14h3.16c.09,0,.17.03.23.09.06.06.09.13.09.22v1.24c0,.09-.03.16-.09.22s-.14.09-.23.09h-6.3Z"/>
    <path class="cls-13" d="M240.66,353.95c-.08,0-.15-.03-.21-.09s-.09-.13-.09-.22v-1.39h-3.82c-.08,0-.15-.03-.21-.09-.06-.06-.09-.13-.09-.22v-1.17c0-.07.01-.14.04-.2.03-.06.06-.12.09-.18l3.57-4.84c.11-.14.26-.21.45-.21h1.78c.09,0,.16.03.23.09.06.06.09.13.09.22v4.77h1.08c.1,0,.18.03.23.09.06.06.09.13.09.21v1.22c0,.09-.03.16-.09.22-.06.06-.13.09-.21.09h-1.09v1.39c0,.09-.03.16-.09.22-.06.06-.14.09-.23.09h-1.51ZM238.34,350.51h2.06v-2.9l-2.06,2.9Z"/>
    <path class="cls-13" d="M247.43,354.98c-.07,0-.14-.03-.19-.08-.05-.05-.08-.11-.08-.18,0-.04.01-.08.04-.12l4.15-10.01c.03-.07.08-.13.15-.2.07-.07.16-.1.29-.1h1.1c.07,0,.13.03.18.08s.08.11.08.18c0,.03,0,.07-.02.12l-4.19,10.01c-.02.06-.06.12-.13.19s-.17.1-.3.1h-1.08Z"/>
    <path class="cls-13" d="M256.88,353.95c-.09,0-.16-.03-.23-.09-.06-.06-.09-.13-.09-.22v-.87c0-.06.02-.14.05-.26s.12-.23.26-.34l1.28-1.25c.66-.5,1.19-.92,1.62-1.27s.73-.66.94-.93c.2-.27.31-.52.31-.76,0-.28-.07-.51-.22-.69s-.39-.28-.74-.28c-.24,0-.43.05-.6.15-.16.1-.28.24-.36.4-.08.16-.14.33-.17.5-.03.11-.09.18-.17.22-.08.04-.16.06-.25.06h-1.54c-.07,0-.14-.02-.19-.07s-.07-.11-.07-.18c0-.39.09-.76.25-1.1.16-.34.39-.65.68-.92.29-.27.64-.47,1.04-.62.41-.15.86-.22,1.37-.22.7,0,1.29.11,1.78.33.49.22.86.53,1.11.93.25.4.38.86.38,1.39,0,.4-.09.78-.26,1.12s-.43.68-.75,1c-.32.32-.71.64-1.15.98l-1.13,1.14h3.16c.09,0,.17.03.23.09.06.06.09.13.09.22v1.24c0,.09-.03.16-.09.22s-.14.09-.23.09h-6.3Z"/>
    <path class="cls-13" d="M268.2,354.07c-.59,0-1.1-.08-1.54-.25-.43-.17-.79-.4-1.08-.69-.28-.29-.5-.64-.64-1.03-.15-.39-.23-.81-.26-1.27,0-.22-.01-.47-.02-.75,0-.28,0-.57,0-.86,0-.29.01-.55.02-.78.02-.45.11-.87.26-1.26s.37-.73.66-1.02c.29-.29.65-.52,1.08-.68.43-.16.93-.25,1.5-.25s1.08.08,1.51.25.78.39,1.07.68c.29.29.51.63.67,1.02.15.39.24.81.26,1.26.02.23.03.49.03.78,0,.29,0,.58,0,.86,0,.28-.01.53-.03.75-.02.45-.1.87-.25,1.27s-.37.74-.65,1.03c-.28.29-.64.53-1.07.69-.43.17-.94.25-1.54.25ZM268.2,352.29c.42,0,.73-.14.93-.41.19-.27.29-.65.3-1.11.02-.24.03-.49.03-.75s0-.52,0-.79-.01-.5-.03-.72c0-.45-.11-.82-.3-1.09-.19-.28-.5-.42-.93-.43-.43,0-.73.15-.92.43s-.29.64-.31,1.09c0,.22-.01.46-.02.72s0,.52,0,.79.01.51.02.75c.02.47.12.84.32,1.11s.5.41.91.41Z"/>
    <path class="cls-13" d="M273.22,353.95c-.09,0-.16-.03-.23-.09-.06-.06-.09-.13-.09-.22v-.87c0-.06.02-.14.05-.26s.12-.23.26-.34l1.28-1.25c.66-.5,1.19-.92,1.62-1.27s.73-.66.94-.93c.2-.27.31-.52.31-.76,0-.28-.07-.51-.22-.69s-.39-.28-.74-.28c-.24,0-.43.05-.6.15-.16.1-.28.24-.36.4-.08.16-.14.33-.17.5-.03.11-.09.18-.17.22-.08.04-.16.06-.25.06h-1.54c-.07,0-.14-.02-.19-.07s-.07-.11-.07-.18c0-.39.09-.76.25-1.1.16-.34.39-.65.68-.92.29-.27.64-.47,1.04-.62.41-.15.86-.22,1.37-.22.7,0,1.29.11,1.78.33.49.22.86.53,1.11.93.25.4.38.86.38,1.39,0,.4-.09.78-.26,1.12s-.43.68-.75,1c-.32.32-.71.64-1.15.98l-1.13,1.14h3.16c.09,0,.17.03.23.09.06.06.09.13.09.22v1.24c0,.09-.03.16-.09.22s-.14.09-.23.09h-6.3Z"/>
    <path class="cls-13" d="M284.31,354.09c-.77,0-1.41-.12-1.93-.36-.52-.24-.91-.56-1.17-.95-.27-.39-.41-.81-.42-1.26,0-.07.02-.13.07-.18.05-.05.11-.07.18-.07h1.65c.11,0,.19.02.25.07.06.05.11.1.14.17.07.19.17.34.29.47.12.12.26.21.42.27s.34.09.53.09c.23,0,.44-.05.64-.15s.35-.24.47-.44c.12-.19.18-.42.18-.69,0-.25-.06-.46-.17-.64s-.26-.32-.46-.43c-.2-.11-.42-.16-.66-.16-.2,0-.36.02-.48.07s-.22.1-.31.17c-.08.07-.16.12-.22.16-.07.05-.14.07-.22.07h-1.61c-.07,0-.14-.03-.19-.08-.05-.05-.08-.12-.08-.19l.44-4.29c.02-.12.06-.22.13-.28.07-.06.16-.09.27-.09h4.93c.09,0,.16.03.22.09.06.06.09.13.09.22v1.15c0,.09-.03.16-.09.22s-.13.09-.22.09h-3.56l-.16,1.6c.18-.12.39-.22.63-.3s.57-.12.99-.12c.39,0,.77.07,1.12.2s.68.32.96.56c.28.25.5.54.66.88.16.34.24.72.24,1.15,0,.58-.14,1.1-.42,1.55-.28.45-.69.8-1.22,1.06s-1.17.39-1.92.39Z"/>
  </g>
  <g>
    <text class="cls-11" transform="translate(178.28 277.17)"><tspan class="cls-16" x="0" y="0">S</tspan><tspan class="cls-18" x="14.56" y="0">y</tspan><tspan class="cls-15" x="27.37" y="0">s</tspan><tspan class="cls-17" x="39.54" y="0">temische</tspan><tspan x="-16.53" y="26.51">Online</tspan><tspan class="cls-16" x="53.29" y="26.51">-</tspan><tspan x="63.76" y="26.51">Expertin</tspan></text>
    <text class="cls-10" transform="translate(170.57 323.02)"><tspan class="cls-5" x="0" y="0">ZE</tspan><tspan class="cls-4" x="11.27" y="0">R</tspan><tspan class="cls-5" x="17.32" y="0">TIFIZIE</tspan><tspan class="cls-4" x="47.11" y="0">R</tspan><tspan class="cls-8" x="53.16" y="0">T</tspan><tspan class="cls-3" x="58.33" y="0"> </tspan><tspan class="cls-6" x="60.37" y="0">V</tspan><tspan class="cls-5" x="66.3" y="0">ON C</tspan><tspan class="cls-7" x="87.62" y="0">OA</tspan><tspan class="cls-5" x="99.97" y="0">CHINGS</tspan><tspan class="cls-1" x="134.07" y="0">P</tspan><tspan class="cls-2" x="139.69" y="0">A</tspan><tspan class="cls-5" x="145.83" y="0">CE</tspan><tspan class="cls-12" x="157.72" y="0"> </tspan></text>
  </g>
  <rect class="cls-14" x="141.02" y="141.02" width="217.97" height="217.97" rx="11.71" ry="11.71"/>
</svg>